# xmcd
#
# Track frame offsets: 
#        150
#        23840
#        38952
#        49412
#        74155
#        91625
#        106037
#        120857
#        137960
#        156717
#        173397
#        187135
#
# Disc length: 2752 seconds
#
# Revision: 8
# Processed by: cddbd v1.5.2PL0 Copyright (c) Steve Scherf et al.
# Submitted via: ExactAudioCopy v0.95b4
#
DISCID=a30abe0c
DTITLE=Various Artist - The Hit Songs Of Andrew Lloyd Webber
DYEAR=1995
DGENRE=Musical
TTITLE0=Graham Bickley - Music Of The Night (The Phantom Of The Opera)
TTITLE1=Maria Friedman - I Don't Know How To Love Him (Jesus Christ Su
TTITLE1=perstar)
TTITLE2=John Barrowman - Any Dream Will Do (Joseph and His Amazing Techn
TTITLE2=icolour Dreamcoat)
TTITLE3=Maria Friedman - Don't Cry For Me Argentina (Evita)
TTITLE4=Claire Moore - Wishing You Were Somehow Here Again (The Phanto
TTITLE4=m Of The Opera)
TTITLE5=Clive Carter - Mr. Mistoffelees (Cats)
TTITLE6=Grania Renihan - Another Suitcase In Another Hall (Evita)
TTITLE7=Maria Friedman - Memory (Cats)
TTITLE8=Diane Langton - Only You (Starlight Express)
TTITLE9=Liz Robertson - Tell Me On A Sunday (Song And Dance)
TTITLE10=John Barrowman - Love Changes Everything (Aspects Of Love)
TTITLE11=Clive Rowe - Superstar (Jesus Christ Superstar)
EXTD=YEAR: 1995
EXTT0=
EXTT1=
EXTT2=
EXTT3=
EXTT4=
EXTT5=
EXTT6=
EXTT7=
EXTT8=
EXTT9=
EXTT10=
EXTT11=
PLAYORDER=
